<svg width="35" height="35" viewBox="0 0 35 35" fill="none" xmlns="http://www.w3.org/2000/svg">
<path d="M34.3127 31.3433L24.0783 21.1073C25.7276 18.8408 26.6148 16.1092 26.6121 13.3061C26.6121 5.96926 20.6429 0 13.3061 0C5.96926 0 0 5.96926 0 13.3061C0 20.6429 5.96926 26.6121 13.3061 26.6121C16.1092 26.6148 18.8408 25.7276 21.1073 24.0783L31.3433 34.3127L34.3127 31.3433ZM13.3061 22.4097C11.5053 22.4098 9.74496 21.876 8.24762 20.8756C6.75028 19.8753 5.58322 18.4534 4.89402 16.7897C4.20483 15.1261 4.02446 13.2954 4.37573 11.5293C4.727 9.7631 5.59413 8.14078 6.86745 6.86745C8.14078 5.59413 9.7631 4.727 11.5293 4.37573C13.2954 4.02446 15.1261 4.20483 16.7897 4.89402C18.4534 5.58322 19.8753 6.75028 20.8756 8.24762C21.876 9.74496 22.4098 11.5053 22.4097 13.3061C22.4068 15.7196 21.4468 18.0335 19.7401 19.7401C18.0335 21.4468 15.7196 22.4068 13.3061 22.4097Z" fill="black"/>
</svg>
