<svg width="68" height="68" viewBox="0 0 68 68" fill="none" xmlns="http://www.w3.org/2000/svg">
<path d="M64.75 34C64.75 17.0234 50.9766 3.25 34 3.25C17.0234 3.25 3.25 17.0234 3.25 34C3.25 50.9766 17.0234 64.75 34 64.75C50.9766 64.75 64.75 50.9766 64.75 34Z" stroke="white" stroke-width="5.125" stroke-miterlimit="10"/>
<path d="M49.162 17.1724L30.3917 24.6805C29.1026 25.1961 27.9316 25.9681 26.9499 26.9499C25.9681 27.9316 25.1961 29.1026 24.6805 30.3917L17.1724 49.162C17.0792 49.3949 17.0564 49.6499 17.1068 49.8956C17.1572 50.1413 17.2786 50.3668 17.4559 50.5441C17.6333 50.7215 17.8588 50.8429 18.1044 50.8933C18.3501 50.9437 18.6052 50.9208 18.838 50.8276L37.6083 43.3195C38.8975 42.804 40.0684 42.0319 41.0502 41.0502C42.0319 40.0684 42.804 38.8975 43.3195 37.6083L50.8276 18.838C50.9208 18.6052 50.9437 18.3501 50.8933 18.1044C50.8429 17.8588 50.7215 17.6333 50.5441 17.4559C50.3668 17.2786 50.1413 17.1572 49.8956 17.1068C49.6499 17.0564 49.3949 17.0792 49.162 17.1724ZM34 37.8438C33.2398 37.8438 32.4967 37.6183 31.8646 37.196C31.2325 36.7736 30.7398 36.1733 30.4489 35.471C30.1579 34.7686 30.0818 33.9958 30.2301 33.2501C30.3784 32.5045 30.7445 31.8196 31.2821 31.2821C31.8196 30.7445 32.5045 30.3784 33.2501 30.2301C33.9958 30.0818 34.7686 30.1579 35.471 30.4489C36.1733 30.7398 36.7736 31.2325 37.196 31.8646C37.6183 32.4967 37.8438 33.2398 37.8438 34C37.8438 35.0195 37.4388 35.9971 36.718 36.718C35.9971 37.4388 35.0195 37.8438 34 37.8438Z" fill="#F0D12D"/>
</svg>
